#!OML:ASF \\sashay\E\basketball\basketball\Project 1\Capture day 1\Session 1\Subject.ASF
:FULLY-SPECIFIED
:DEGREES
455
root 1.19144 13.7271 -16.8238 -190.493 51.6752 148.519
lowerback 21.633 2.13527 -11.774
upperback 8.41451 1.43184 -3.36409
thorax -2.8671 1.05014 2.6674
lowerneck 8.98108 -13.9725 -25.5914
upperneck -25.256 -16.1235 42.1514
head -1.46531 -9.50546 20.0881
rclavicle -2.22639e-014 -5.24792e-014
rhumerus -39.59 -15.9273 -74.5091
rradius 44.8351
rwrist -22.3365
rhand -20.4528 28.1906
rfingers 7.12502
rthumb 5.90269 -1.70718
lclavicle -2.22639e-014 -5.24792e-014
lhumerus 28.8357 -29.4415 58.0506
lradius 120.373
lwrist -4.5982
lhand -17.9426 35.3276
lfingers 7.12502
lthumb 8.32574 65.1435
rfemur -47.4839 -22.8972 18.1048
rtibia 114.413
rfoot -15.9717 -11.8473
rtoes -9.15393
lfemur -19.673 6.28016 -22.3858
ltibia 52.3383
lfoot -26.0793 -13.844
ltoes -39.9817
456
root 1.65594 13.7707 -16.9648 -190.919 52.067 148.185
lowerback 21.9131 1.50871 -11.6655
upperback 8.20304 0.550997 -3.25859
thorax -3.13471 0.624398 2.92684
lowerneck 7.81335 -13.543 -25.3116
upperneck -24.506 -15.4038 41.171
head -1.52078 -8.95283 19.5278
rclavicle -2.14687e-014 6.44062e-014
rhumerus -38.7787 -16.1151 -74.3965
rradius 44.9993
rwrist -22.916
rhand -20.366 28.2097
rfingers 7.12502
rthumb 5.98644 -1.68568
lclavicle -2.14687e-014 6.44062e-014
lhumerus 27.6631 -31.2281 56.5328
lradius 116.724
lwrist -5.88152
lhand -19.1497 35.291
lfingers 7.12502
lthumb 7.16065 65.1499
rfemur -51.6773 -21.1553 18.1313
rtibia 113.088
rfoot -16.4963 -13.1927
rtoes -12.9404
lfemur -16.2158 6.54104 -21.5194
ltibia 49.4657
lfoot -23.3617 -15.1292
ltoes -38.6809
457
root 2.14308 13.8299 -17.1137 -191.364 52.727 148.06
lowerback 21.844 0.929928 -11.8278
upperback 8.22536 -0.224638 -2.83864
thorax -2.96424 0.214102 3.66138
lowerneck 6.57789 -12.92 -25.3001
upperneck -23.4533 -14.5356 40.0602
head -1.51506 -8.30288 18.9755
rclavicle 4.77083e-015 1.15295e-013
rhumerus -37.1324 -15.7842 -74.2837
rradius 44.665
rwrist -23.0872
rhand -20.2181 28.1915
rfingers 7.12502
rthumb 6.12924 -1.6998
lclavicle 4.77083e-015 1.15295e-013
lhumerus 25.312 -32.5854 56.1039
lradius 112.802
lwrist -6.89141
lhand -20.8553 35.1205
lfingers 7.12502
lthumb 5.51405 65.0288
rfemur -55.1965 -18.9729 18.0417
rtibia 110.9
rfoot -16.3953 -14.2647
rtoes -16.6819
lfemur -12.3692 6.90312 -20.4301
ltibia 46.2906
lfoot -19.9958 -16.174
ltoes -37.0897
458
root 2.64059 13.9043 -17.2699 -191.468 53.4674 148.046
lowerback 21.6129 0.306845 -11.7139
upperback 8.10267 -1.01981 -2.42922
thorax -2.86647 -0.205169 4.22827
lowerneck 5.49283 -12.3702 -25.1797
upperneck -22.3442 -13.8235 38.8866
head -1.4728 -7.76545 18.3482
rclavicle -4.05521e-014 -2.06736e-014
rhumerus -35.4253 -15.3843 -74.3444
rradius 44.1845
rwrist -22.6475
rhand -20.1755 28.1646
rfingers 7.12502
rthumb 6.1704 -1.72555
lclavicle -4.05521e-014 -2.06736e-014
lhumerus 22.628 -33.8371 56.4586
lradius 108.304
lwrist -8.15832
lhand -22.7246 34.9833
lfingers 7.12502
lthumb 3.70903 64.9308
rfemur -58.6839 -16.7355 17.7874
rtibia 108.029
rfoot -16.0807 -14.4294
rtoes -17.5713
lfemur -8.77069 7.04599 -19.4036
ltibia 42.9009
lfoot -16.4468 -16.2218
ltoes -37.7017
459
root 3.14759 13.9815 -17.4318 -191.47 54.2453 148.094
lowerback 21.2902 -0.288868 -11.2405
upperback 8.08563 -1.67831 -2.17225
thorax -2.64148 -0.553306 4.38648
lowerneck 4.3872 -12.0145 -24.7283
upperneck -21.5104 -13.2519 37.9302
head -1.43085 -7.33885 17.7513
rclavicle -2.8625e-014 -6.04305e-014
rhumerus -33.5048 -15.3401 -74.7011
rradius 43.6221
rwrist -22.0747
rhand -20.1943 28.1451
rfingers 7.12502
rthumb 6.15222 -1.74559
lclavicle -2.8625e-014 -6.04305e-014
lhumerus 21.2032 -35.0032 56.6447
lradius 103.067
lwrist -9.46861
lhand -24.8307 35.3812
lfingers 7.12502
lthumb 1.6751 65.3544
rfemur -61.5032 -14.5573 17.2866
rtibia 104.441
rfoot -16.1726 -14.2798
rtoes -18.3063
lfemur -5.17137 6.95053 -18.3925
ltibia 39.3029
lfoot -12.2915 -16.0704
ltoes -37.8925
460
root 3.67007 14.0521 -17.5916 -191.662 55.0683 148.061
lowerback 20.9544 -0.831668 -10.8446
upperback 8.19695 -2.2567 -1.99632
thorax -2.27919 -0.864147 4.47022
lowerneck 3.3094 -11.6142 -24.1712
upperneck -20.9124 -12.5389 37.0865
head -1.48163 -6.85584 17.2497
rclavicle -7.95139e-016 -6.36111e-015
rhumerus -31.408 -15.2951 -75.352
rradius 43.0207
rwrist -21.4258
rhand -20.2467 28.1025
rfingers 7.12502
rthumb 6.10161 -1.7896
lclavicle -7.95139e-016 -6.36111e-015
lhumerus 20.1379 -36.0966 56.6572
lradius 97.2798
lwrist -11.1775
lhand -27.7632 35.2809
lfingers 7.12502
lthumb -1.15721 65.2575
rfemur -63.6757 -12.5013 16.6385
rtibia 100.282
rfoot -16.2929 -14.268
rtoes -20.5873
lfemur -1.39182 6.8673 -17.4043
ltibia 35.4728
lfoot -7.46426 -15.6769
ltoes -37.2241
461
root 4.20374 14.1221 -17.7508 -191.992 55.9529 147.862
lowerback 20.565 -1.34151 -10.7003
upperback 8.30206 -2.83737 -1.72551
thorax -1.87306 -1.18649 4.78522
lowerneck 2.39172 -11.1367 -23.9752
upperneck -20.4368 -11.7728 36.3312
head -1.55613 -6.34929 16.9029
rclavicle 7.95139e-016 2.54444e-014
rhumerus -29.3055 -14.6656 -76.048
rradius 42.5673
rwrist -20.8244
rhand -20.3475 28.085
rfingers 7.12502
rthumb 6.0043 -1.8099
lclavicle 7.95139e-016 2.54444e-014
lhumerus 18.6332 -36.8597 57.1559
lradius 91.2319
lwrist -13.9647
lhand -31.2031 34.7782
lfingers 7.12502
lthumb -4.47922 64.7109
rfemur -65.5655 -10.6671 15.9056
rtibia 95.6107
rfoot -16.1399 -13.9064
rtoes -22.353
lfemur 2.45004 6.80498 -16.5837
ltibia 31.3351
lfoot -2.10782 -14.6082
ltoes -34.6582
462
root 4.74874 14.1993 -17.9094 -192.456 56.7687 147.535
lowerback 20.2866 -1.83088 -10.54
upperback 8.32236 -3.41925 -1.51586
thorax -1.61803 -1.49903 5.02221
lowerneck 1.31562 -10.7354 -23.6328
upperneck -19.8319 -11.1403 35.294
head -1.56073 -5.89595 16.3486
rclavicle 1.35174e-014 -5.56597e-015
rhumerus -27.5341 -13.8038 -76.8232
rradius 42.3641
rwrist -20.5004
rhand -20.4351 28.115
rfingers 7.12502
rthumb 5.91978 -1.78227
lclavicle 1.35174e-014 -5.56597e-015
lhumerus 17.3018 -37.5184 57.9227
lradius 84.9554
lwrist -17.526
lhand -33.7988 34.926
lfingers 7.12502
lthumb -6.98532 64.7908
rfemur -66.8864 -9.18003 15.078
rtibia 90.3795
rfoot -15.7892 -12.7424
rtoes -21.4674
lfemur 6.45715 6.06381 -16.1304
ltibia 26.9501
lfoot 2.07642 -12.2387
ltoes -31.9303
463
root 5.30561 14.2785 -18.063 -193.301 57.4617 146.923
lowerback 20.2159 -2.23637 -10.4534
upperback 8.29434 -3.93542 -1.46791
thorax -1.5355 -1.76276 5.11962
lowerneck 0.64789 -10.3055 -22.866
upperneck -19.4482 -10.4802 34.1748
head -1.73536 -5.49058 15.7344
rclavicle -4.69132e-014 -1.59028e-014
rhumerus -26.1479 -13.0423 -77.7468
rradius 42.3332
rwrist -20.266
rhand -20.4855 28.1327
rfingers 7.12502
rthumb 5.87106 -1.76601
lclavicle -4.69132e-014 -1.59028e-014
lhumerus 16.4032 -38.2668 58.7992
lradius 78.2367
lwrist -21.2967
lhand -35.5366 35.4064
lfingers 7.12502
lthumb -8.6626 65.2087
rfemur -67.6301 -8.03176 14.164
rtibia 84.7798
rfoot -15.4675 -12.4376
rtoes -23.1753
lfemur 10.8818 4.50106 -16.2193
ltibia 22.2663
lfoot 3.7056 -8.82432
ltoes -35.0304
464
root 5.85523 14.3562 -18.2229 -193.771 58.5022 146.273
lowerback 19.5707 -2.56672 -10.1913
upperback 8.2557 -4.28012 -1.39435
thorax -1.21548 -1.96189 5.07983
lowerneck -0.268819 -9.88846 -22.5497
upperneck -18.8457 -9.83165 33.5167
head -1.69933 -5.06739 15.382
rclavicle 1.07344e-013 -9.22361e-014
rhumerus -24.6227 -12.099 -78.6718
rradius 42.2653
rwrist -20.0485
rhand -20.5316 28.2085
rfingers 7.12502
rthumb 5.82657 -1.69138
lclavicle 1.07344e-013 -9.22361e-014
lhumerus 15.901 -38.5358 59.9255
lradius 71.1907
lwrist -24.9012
lhand -37.1221 35.957
lfingers 7.12502
lthumb -10.1925 65.6901
rfemur -68.7124 -6.98579 13.6439
rtibia 78.9093
rfoot -14.3103 -11.9364
rtoes -23.7071
lfemur 15.0735 2.74762 -16.7566
ltibia 17.4414
lfoot 4.3135 -4.35815
ltoes -40.7035
